<svg width="12" height="11" viewBox="0 0 12 11" fill="none" xmlns="http://www.w3.org/2000/svg">
<path d="M10.6665 1.17321C10.1328 0.608899 9.41002 0.291557 8.65623 0.290581C7.90244 0.289606 7.17895 0.605077 6.64398 1.16801L6.00172 1.80044L5.35896 1.16593C4.82412 0.600546 4.09931 0.283548 3.34398 0.284671C2.58865 0.285794 1.86468 0.604944 1.33133 1.17191C0.797981 1.73888 0.498944 2.50723 0.500003 3.30792C0.501062 4.10861 0.80213 4.87606 1.33698 5.44144L5.72429 10.1604C5.76084 10.1998 5.80441 10.231 5.85246 10.2524C5.90051 10.2737 5.95208 10.2847 6.00417 10.2847C6.05626 10.2847 6.10783 10.2737 6.15588 10.2524C6.20393 10.231 6.2475 10.1998 6.28406 10.1604L10.6665 5.44144C11.2002 4.87532 11.5 4.1077 11.5 3.30733C11.5 2.50695 11.2002 1.73933 10.6665 1.17321ZM10.1091 4.85638L6.00172 9.27244L1.89183 4.85222C1.50506 4.44221 1.28777 3.88613 1.28777 3.30629C1.28777 2.72645 1.50506 2.17036 1.89183 1.76036C2.27861 1.35035 2.80319 1.12001 3.35018 1.12001C3.89717 1.12001 4.42175 1.35035 4.80852 1.76036L4.81835 1.77077L5.73411 2.67386C5.8068 2.74557 5.90242 2.78544 6.00172 2.78544C6.10102 2.78544 6.19663 2.74557 6.26932 2.67386L7.18509 1.77077L7.19491 1.76036C7.58194 1.35063 8.10667 1.12066 8.65366 1.12105C9.20064 1.12144 9.72508 1.35216 10.1116 1.76244C10.4981 2.17272 10.715 2.72896 10.7147 3.3088C10.7143 3.88864 10.4967 4.44457 10.1096 4.8543L10.1091 4.85638Z" fill="white"/>
</svg>
