<svg width="15" height="8" viewBox="0 0 15 8" fill="none" xmlns="http://www.w3.org/2000/svg">
<path d="M13.8576 1.32983L7.92007 7.26733C7.86493 7.32254 7.79945 7.36633 7.72737 7.39621C7.65529 7.42609 7.57802 7.44147 7.49999 7.44147C7.42197 7.44147 7.3447 7.42609 7.27262 7.39621C7.20054 7.36633 7.13506 7.32254 7.07992 7.26733L1.14242 1.32983C1.031 1.21842 0.968414 1.06731 0.968414 0.909754C0.968414 0.752194 1.031 0.601087 1.14242 0.489676C1.25383 0.378264 1.40493 0.315674 1.56249 0.315674C1.72005 0.315674 1.87116 0.378264 1.98257 0.489676L7.49999 6.00784L13.0174 0.489676C13.0726 0.43451 13.1381 0.390751 13.2102 0.360895C13.2822 0.33104 13.3595 0.315674 13.4375 0.315674C13.5155 0.315674 13.5928 0.33104 13.6648 0.360895C13.7369 0.390751 13.8024 0.43451 13.8576 0.489676C13.9127 0.544841 13.9565 0.610332 13.9864 0.682409C14.0162 0.754486 14.0316 0.831738 14.0316 0.909754C14.0316 0.98777 14.0162 1.06502 13.9864 1.1371C13.9565 1.20918 13.9127 1.27467 13.8576 1.32983Z" fill="white"/>
</svg>
