<svg width="20" height="20" viewBox="0 0 20 20" fill="none" xmlns="http://www.w3.org/2000/svg">
<path d="M10 0.722168C8.10872 0.722168 6.25991 1.283 4.68736 2.33374C3.11482 3.38448 1.88917 4.87794 1.16541 6.62526C0.441643 8.37258 0.252274 10.2953 0.621245 12.1502C0.990216 14.0052 1.90096 15.709 3.2383 17.0464C4.57564 18.3837 6.27951 19.2945 8.13445 19.6634C9.9894 20.0324 11.9121 19.843 13.6594 19.1193C15.4067 18.3955 16.9002 17.1699 17.9509 15.5973C19.0017 14.0248 19.5625 12.176 19.5625 10.2847C19.5595 7.74945 18.5511 5.31892 16.7584 3.52625C14.9658 1.73358 12.5352 0.725145 10 0.722168ZM17.6472 6.72217H13.8803C13.4704 5.02191 12.7228 3.42144 11.6819 2.01592C12.9741 2.28147 14.1864 2.84527 15.2221 3.66236C16.2578 4.47946 17.0882 5.52725 17.6472 6.72217ZM18.4375 10.2847C18.4381 11.1104 18.3171 11.9317 18.0784 12.7222H14.1119C14.3794 11.1082 14.3794 9.46116 14.1119 7.84717H18.0784C18.3171 8.63763 18.4381 9.45895 18.4375 10.2847ZM10 18.7222C9.97663 18.7223 9.95349 18.7174 9.93215 18.7079C9.91081 18.6984 9.89175 18.6844 9.87625 18.6669C8.66875 17.3665 7.78188 15.6969 7.28125 13.8472H12.7188C12.2181 15.6969 11.3313 17.3665 10.1238 18.6669C10.1083 18.6844 10.0892 18.6984 10.0679 18.7079C10.0465 18.7174 10.0234 18.7223 10 18.7222ZM7.02907 12.7222C6.74033 11.11 6.74033 9.45934 7.02907 7.84717H12.9709C13.2597 9.45934 13.2597 11.11 12.9709 12.7222H7.02907ZM1.5625 10.2847C1.56187 9.45895 1.68286 8.63763 1.92157 7.84717H5.88813C5.62061 9.46116 5.62061 11.1082 5.88813 12.7222H1.92157C1.68286 11.9317 1.56187 11.1104 1.5625 10.2847ZM10 1.84717C10.0234 1.84704 10.0465 1.85191 10.0679 1.86145C10.0892 1.87099 10.1083 1.88498 10.1238 1.90248C11.3313 3.20279 12.2181 4.87248 12.7188 6.72217H7.28125C7.78188 4.87248 8.66875 3.20279 9.87625 1.90248C9.89175 1.88498 9.91081 1.87099 9.93215 1.86145C9.95349 1.85191 9.97663 1.84704 10 1.84717ZM8.31813 2.01592C7.27724 3.42144 6.52961 5.02191 6.11969 6.72217H2.35282C2.9118 5.52725 3.74225 4.47946 4.77795 3.66236C5.81364 2.84527 7.02593 2.28147 8.31813 2.01592ZM2.35282 13.8472H6.11969C6.52961 15.5474 7.27724 17.1479 8.31813 18.5534C7.02593 18.2879 5.81364 17.7241 4.77795 16.907C3.74225 16.0899 2.9118 15.0421 2.35282 13.8472ZM11.6819 18.5534C12.7228 17.1479 13.4704 15.5474 13.8803 13.8472H17.6472C17.0882 15.0421 16.2578 16.0899 15.2221 16.907C14.1864 17.7241 12.9741 18.2879 11.6819 18.5534Z" fill="white"/>
</svg>
