<svg width="22" height="17" viewBox="0 0 22 17" fill="none" xmlns="http://www.w3.org/2000/svg">
<path d="M21.6799 8.50018C21.6799 8.73622 21.5862 8.9626 21.4193 9.12951C21.2524 9.29641 21.026 9.39018 20.7899 9.39018H1.21006C0.974021 9.39018 0.747648 9.29641 0.580742 9.12951C0.413836 8.9626 0.320068 8.73622 0.320068 8.50018C0.320068 8.26414 0.413836 8.03777 0.580742 7.87086C0.747648 7.70396 0.974021 7.61019 1.21006 7.61019H20.7899C21.026 7.61019 21.2524 7.70396 21.4193 7.87086C21.5862 8.03777 21.6799 8.26414 21.6799 8.50018ZM1.21006 2.27022H20.7899C21.026 2.27022 21.2524 2.17646 21.4193 2.00955C21.5862 1.84264 21.6799 1.61627 21.6799 1.38023C21.6799 1.14419 21.5862 0.917814 21.4193 0.750908C21.2524 0.584002 21.026 0.490234 20.7899 0.490234H1.21006C0.974021 0.490234 0.747648 0.584002 0.580742 0.750908C0.413836 0.917814 0.320068 1.14419 0.320068 1.38023C0.320068 1.61627 0.413836 1.84264 0.580742 2.00955C0.747648 2.17646 0.974021 2.27022 1.21006 2.27022ZM20.7899 14.7301H1.21006C0.974021 14.7301 0.747648 14.8239 0.580742 14.9908C0.413836 15.1577 0.320068 15.3841 0.320068 15.6201C0.320068 15.8562 0.413836 16.0826 0.580742 16.2495C0.747648 16.4164 0.974021 16.5101 1.21006 16.5101H20.7899C21.026 16.5101 21.2524 16.4164 21.4193 16.2495C21.5862 16.0826 21.6799 15.8562 21.6799 15.6201C21.6799 15.3841 21.5862 15.1577 21.4193 14.9908C21.2524 14.8239 21.026 14.7301 20.7899 14.7301Z" fill="white"/>
</svg>
