<svg width="16" height="16" viewBox="0 0 16 16" fill="none" xmlns="http://www.w3.org/2000/svg">
<path d="M14.416 4.45864L8.60398 13.714C8.49701 13.8834 8.32921 14.0055 8.13505 14.0551C7.94089 14.1047 7.73511 14.078 7.55998 13.9806C7.44383 13.9156 7.34576 13.8225 7.27465 13.71L1.57665 4.45464C1.41701 4.19526 1.33275 3.89654 1.33332 3.59197C1.34051 3.14232 1.52579 2.71389 1.8485 2.40068C2.1712 2.08747 2.60498 1.91507 3.05465 1.92131H12.9533C13.898 1.92131 14.6666 2.66664 14.6666 3.58797C14.6666 3.89464 14.58 4.19597 14.4153 4.45864M2.97532 4.14931L7.21532 10.686V3.48997H3.41865C2.97998 3.48997 2.78332 3.78064 2.97598 4.14931M8.78398 10.686L13.024 4.14931C13.2193 3.78064 13.0193 3.48997 12.5806 3.48997H8.78398V10.686Z" fill="#007AFF"/>
</svg>
