<svg width="270" height="140" viewBox="0 0 270 140" fill="none" xmlns="http://www.w3.org/2000/svg">
<g filter="url(#filter0_b_19_5733)">
<g clip-path="url(#clip0_19_5733)">
<rect width="270" height="140" rx="14" fill="#999999" fill-opacity="0.97"/>
<rect width="270" height="140" rx="14" fill="#5C5C5C" style="mix-blend-mode:color-dodge"/>
<path d="M71.8262 32.0405V30.314H75.0137C75.7829 30.314 76.3806 30.1175 76.8067 29.7246C77.2328 29.3262 77.4459 28.7673 77.4459 28.0479V28.0312C77.4459 27.3063 77.2328 26.7474 76.8067 26.3545C76.3806 25.9616 75.7829 25.7651 75.0137 25.7651H71.8262V24.022H75.5367C76.3502 24.022 77.0613 24.188 77.67 24.52C78.2787 24.8521 78.7546 25.3197 79.0977 25.9229C79.4408 26.5205 79.6124 27.2205 79.6124 28.0229V28.0396C79.6124 28.8364 79.4408 29.5365 79.0977 30.1396C78.7546 30.7373 78.2787 31.2049 77.67 31.5425C77.0613 31.8745 76.3502 32.0405 75.5367 32.0405H71.8262ZM70.7554 36V24.022H72.897V36H70.7554ZM81.3323 36V26.9272H83.3992V28.3218H83.5403C83.6952 27.8348 83.9719 27.4557 84.3704 27.1846C84.7743 26.9134 85.2751 26.7778 85.8728 26.7778C86.0277 26.7778 86.1799 26.7889 86.3293 26.811C86.4843 26.8276 86.6116 26.8498 86.7112 26.8774V28.7285C86.5452 28.6898 86.3764 28.6621 86.2048 28.6455C86.0388 28.6234 85.8645 28.6123 85.6819 28.6123C85.2226 28.6123 84.8214 28.6981 84.4783 28.8696C84.1352 29.0412 83.8695 29.2874 83.6814 29.6084C83.4932 29.9238 83.3992 30.2974 83.3992 30.729V36H81.3323ZM91.6601 36.1826C90.7581 36.1826 89.9806 35.9945 89.3276 35.6182C88.6746 35.2363 88.171 34.694 87.8168 33.9912C87.4682 33.2884 87.2939 32.4473 87.2939 31.4678V31.4512C87.2939 30.4827 87.471 29.6471 87.8251 28.9443C88.1793 28.236 88.6801 27.6937 89.3276 27.3174C89.9806 26.9411 90.7581 26.7529 91.6601 26.7529C92.5621 26.7529 93.3368 26.9411 93.9843 27.3174C94.6373 27.6937 95.1409 28.2332 95.495 28.936C95.8492 29.6388 96.0263 30.4772 96.0263 31.4512V31.4678C96.0263 32.4473 95.8492 33.2884 95.495 33.9912C95.1464 34.694 94.6456 35.2363 93.9926 35.6182C93.3451 35.9945 92.5676 36.1826 91.6601 36.1826ZM91.6601 34.5059C92.136 34.5059 92.54 34.3869 92.872 34.1489C93.2096 33.9054 93.4669 33.5596 93.644 33.1113C93.8211 32.6576 93.9096 32.1125 93.9096 31.4761V31.4595C93.9096 30.8175 93.8211 30.2725 93.644 29.8242C93.4669 29.3704 93.2096 29.0246 92.872 28.7866C92.54 28.5431 92.136 28.4214 91.6601 28.4214C91.1842 28.4214 90.7774 28.5431 90.4399 28.7866C90.1023 29.0246 89.845 29.3704 89.6679 29.8242C89.4908 30.2725 89.4023 30.8175 89.4023 31.4595V31.4761C89.4023 32.1125 89.4908 32.6576 89.6679 33.1113C89.845 33.5651 90.0995 33.911 90.4316 34.1489C90.7691 34.3869 91.1786 34.5059 91.6601 34.5059ZM101.589 36.1826C100.687 36.1826 99.9099 35.9945 99.2569 35.6182C98.6039 35.2363 98.1004 34.694 97.7462 33.9912C97.3976 33.2884 97.2232 32.4473 97.2232 31.4678V31.4512C97.2232 30.4827 97.4003 29.6471 97.7545 28.9443C98.1087 28.236 98.6095 27.6937 99.2569 27.3174C99.9099 26.9411 100.687 26.7529 101.589 26.7529C102.491 26.7529 103.266 26.9411 103.914 27.3174C104.567 27.6937 105.07 28.2332 105.424 28.936C105.779 29.6388 105.956 30.4772 105.956 31.4512V31.4678C105.956 32.4473 105.779 33.2884 105.424 33.9912C105.076 34.694 104.575 35.2363 103.922 35.6182C103.275 35.9945 102.497 36.1826 101.589 36.1826ZM101.589 34.5059C102.065 34.5059 102.469 34.3869 102.801 34.1489C103.139 33.9054 103.396 33.5596 103.573 33.1113C103.75 32.6576 103.839 32.1125 103.839 31.4761V31.4595C103.839 30.8175 103.75 30.2725 103.573 29.8242C103.396 29.3704 103.139 29.0246 102.801 28.7866C102.469 28.5431 102.065 28.4214 101.589 28.4214C101.114 28.4214 100.707 28.5431 100.369 28.7866C100.032 29.0246 99.7744 29.3704 99.5973 29.8242C99.4202 30.2725 99.3316 30.8175 99.3316 31.4595V31.4761C99.3316 32.1125 99.4202 32.6576 99.5973 33.1113C99.7744 33.5651 100.029 33.911 100.361 34.1489C100.699 34.3869 101.108 34.5059 101.589 34.5059ZM108.265 36V28.5293H106.779V26.9272H108.265V26.0308C108.265 25.422 108.367 24.9185 108.572 24.52C108.782 24.1216 109.106 23.8255 109.543 23.6318C109.98 23.4326 110.534 23.333 111.203 23.333C111.425 23.333 111.63 23.3413 111.818 23.3579C112.006 23.369 112.18 23.3883 112.341 23.416V24.8604C112.263 24.8493 112.164 24.841 112.042 24.8354C111.92 24.8244 111.787 24.8188 111.643 24.8188C111.156 24.8188 110.81 24.9323 110.606 25.1592C110.401 25.3805 110.299 25.7098 110.299 26.147V26.9272H112.266V28.5293H110.332V36H108.265ZM121.848 36.1826C120.946 36.1826 120.169 35.9945 119.516 35.6182C118.863 35.2363 118.359 34.694 118.005 33.9912C117.656 33.2884 117.482 32.4473 117.482 31.4678V31.4512C117.482 30.4827 117.659 29.6471 118.013 28.9443C118.367 28.236 118.868 27.6937 119.516 27.3174C120.169 26.9411 120.946 26.7529 121.848 26.7529C122.75 26.7529 123.525 26.9411 124.173 27.3174C124.825 27.6937 125.329 28.2332 125.683 28.936C126.037 29.6388 126.214 30.4772 126.214 31.4512V31.4678C126.214 32.4473 126.037 33.2884 125.683 33.9912C125.335 34.694 124.834 35.2363 124.181 35.6182C123.533 35.9945 122.756 36.1826 121.848 36.1826ZM121.848 34.5059C122.324 34.5059 122.728 34.3869 123.06 34.1489C123.398 33.9054 123.655 33.5596 123.832 33.1113C124.009 32.6576 124.098 32.1125 124.098 31.4761V31.4595C124.098 30.8175 124.009 30.2725 123.832 29.8242C123.655 29.3704 123.398 29.0246 123.06 28.7866C122.728 28.5431 122.324 28.4214 121.848 28.4214C121.372 28.4214 120.966 28.5431 120.628 28.7866C120.291 29.0246 120.033 29.3704 119.856 29.8242C119.679 30.2725 119.59 30.8175 119.59 31.4595V31.4761C119.59 32.1125 119.679 32.6576 119.856 33.1113C120.033 33.5651 120.288 33.911 120.62 34.1489C120.957 34.3869 121.367 34.5059 121.848 34.5059ZM128.524 36V28.5293H127.038V26.9272H128.524V26.0308C128.524 25.422 128.626 24.9185 128.831 24.52C129.041 24.1216 129.365 23.8255 129.802 23.6318C130.239 23.4326 130.793 23.333 131.462 23.333C131.684 23.333 131.888 23.3413 132.076 23.3579C132.265 23.369 132.439 23.3883 132.599 23.416V24.8604C132.522 24.8493 132.422 24.841 132.301 24.8354C132.179 24.8244 132.046 24.8188 131.902 24.8188C131.415 24.8188 131.069 24.9323 130.865 25.1592C130.66 25.3805 130.557 25.7098 130.557 26.147V26.9272H132.525V28.5293H130.591V36H128.524ZM138.272 36V23.416H140.339V36H138.272ZM146.425 36.1826C145.523 36.1826 144.746 35.9945 144.093 35.6182C143.44 35.2363 142.936 34.694 142.582 33.9912C142.233 33.2884 142.059 32.4473 142.059 31.4678V31.4512C142.059 30.4827 142.236 29.6471 142.59 28.9443C142.944 28.236 143.445 27.6937 144.093 27.3174C144.746 26.9411 145.523 26.7529 146.425 26.7529C147.327 26.7529 148.102 26.9411 148.749 27.3174C149.402 27.6937 149.906 28.2332 150.26 28.936C150.614 29.6388 150.791 30.4772 150.791 31.4512V31.4678C150.791 32.4473 150.614 33.2884 150.26 33.9912C149.911 34.694 149.411 35.2363 148.758 35.6182C148.11 35.9945 147.333 36.1826 146.425 36.1826ZM146.425 34.5059C146.901 34.5059 147.305 34.3869 147.637 34.1489C147.975 33.9054 148.232 33.5596 148.409 33.1113C148.586 32.6576 148.675 32.1125 148.675 31.4761V31.4595C148.675 30.8175 148.586 30.2725 148.409 29.8242C148.232 29.3704 147.975 29.0246 147.637 28.7866C147.305 28.5431 146.901 28.4214 146.425 28.4214C145.949 28.4214 145.543 28.5431 145.205 28.7866C144.867 29.0246 144.61 29.3704 144.433 29.8242C144.256 30.2725 144.167 30.8175 144.167 31.4595V31.4761C144.167 32.1125 144.256 32.6576 144.433 33.1113C144.61 33.5651 144.865 33.911 145.197 34.1489C145.534 34.3869 145.944 34.5059 146.425 34.5059ZM156.33 36.1826C155.417 36.1826 154.636 35.9945 153.989 35.6182C153.341 35.2419 152.846 34.6995 152.503 33.9912C152.16 33.2829 151.988 32.4362 151.988 31.4512V31.4346C151.988 30.4551 152.16 29.6167 152.503 28.9194C152.846 28.2222 153.341 27.6882 153.989 27.3174C154.636 26.9411 155.414 26.7529 156.321 26.7529C157.102 26.7529 157.771 26.8885 158.33 27.1597C158.895 27.4253 159.34 27.7961 159.667 28.272C159.999 28.7424 160.203 29.293 160.281 29.9238V29.957H158.33L158.322 29.9321C158.228 29.4894 158.012 29.127 157.674 28.8447C157.342 28.5625 156.894 28.4214 156.33 28.4214C155.859 28.4214 155.455 28.5404 155.118 28.7783C154.786 29.0163 154.531 29.3594 154.354 29.8076C154.177 30.2559 154.088 30.7982 154.088 31.4346V31.4512C154.088 32.0931 154.177 32.6437 154.354 33.103C154.537 33.5568 154.794 33.9054 155.126 34.1489C155.458 34.3869 155.859 34.5059 156.33 34.5059C156.866 34.5059 157.298 34.3841 157.625 34.1406C157.957 33.8971 158.186 33.5374 158.314 33.0615L158.33 33.0283L160.272 33.02L160.264 33.0947C160.165 33.709 159.949 34.2485 159.617 34.7134C159.29 35.1782 158.853 35.5407 158.305 35.8008C157.757 36.0553 157.099 36.1826 156.33 36.1826ZM164.292 36.1494C163.722 36.1494 163.21 36.0387 162.756 35.8174C162.308 35.596 161.954 35.2834 161.694 34.8794C161.439 34.4699 161.312 33.9884 161.312 33.4351V33.4185C161.312 32.8817 161.445 32.4196 161.71 32.0322C161.976 31.6393 162.366 31.3322 162.881 31.1108C163.395 30.8895 164.021 30.7594 164.757 30.7207L168.11 30.5132V31.8745L165.047 32.0737C164.466 32.1069 164.037 32.2287 163.76 32.439C163.484 32.6493 163.345 32.9425 163.345 33.3188V33.3354C163.345 33.7228 163.492 34.0244 163.785 34.2402C164.084 34.4561 164.463 34.564 164.923 34.564C165.338 34.564 165.708 34.481 166.035 34.3149C166.361 34.1489 166.619 33.9248 166.807 33.6426C166.995 33.3548 167.089 33.0311 167.089 32.6714V29.7993C167.089 29.3455 166.945 28.9997 166.657 28.7617C166.37 28.5182 165.944 28.3965 165.379 28.3965C164.909 28.3965 164.524 28.4795 164.225 28.6455C163.926 28.806 163.724 29.0356 163.619 29.3345L163.611 29.3677H161.66L161.669 29.293C161.735 28.7839 161.934 28.3384 162.266 27.9565C162.598 27.5747 163.038 27.2786 163.586 27.0684C164.134 26.8581 164.765 26.7529 165.479 26.7529C166.265 26.7529 166.929 26.8747 167.471 27.1182C168.013 27.3561 168.426 27.7048 168.708 28.1641C168.99 28.6178 169.131 29.1629 169.131 29.7993V36H167.089V34.7549H166.948C166.782 35.0426 166.566 35.2917 166.301 35.502C166.04 35.7122 165.742 35.8727 165.404 35.9834C165.066 36.0941 164.696 36.1494 164.292 36.1494ZM174.752 36.0415C173.712 36.0415 172.962 35.8506 172.503 35.4688C172.044 35.0869 171.814 34.4616 171.814 33.5928V28.5293H170.403V26.9272H171.814V24.7026H173.914V26.9272H175.823V28.5293H173.914V33.103C173.914 33.5513 174.008 33.8805 174.196 34.0908C174.39 34.2956 174.7 34.3979 175.126 34.3979C175.275 34.3979 175.397 34.3952 175.491 34.3896C175.591 34.3786 175.701 34.3675 175.823 34.3564V35.9502C175.679 35.9779 175.513 36 175.325 36.0166C175.142 36.0332 174.952 36.0415 174.752 36.0415ZM177.485 36V26.9272H179.544V36H177.485ZM178.523 25.4082C178.185 25.4082 177.894 25.2892 177.651 25.0513C177.407 24.8133 177.286 24.5283 177.286 24.1963C177.286 23.8532 177.407 23.5654 177.651 23.333C177.894 23.0951 178.185 22.9761 178.523 22.9761C178.86 22.9761 179.148 23.0951 179.386 23.333C179.629 23.5654 179.751 23.8532 179.751 24.1963C179.751 24.5283 179.629 24.8133 179.386 25.0513C179.148 25.2892 178.86 25.4082 178.523 25.4082ZM185.58 36.1826C184.678 36.1826 183.9 35.9945 183.247 35.6182C182.594 35.2363 182.091 34.694 181.737 33.9912C181.388 33.2884 181.214 32.4473 181.214 31.4678V31.4512C181.214 30.4827 181.391 29.6471 181.745 28.9443C182.099 28.236 182.6 27.6937 183.247 27.3174C183.9 26.9411 184.678 26.7529 185.58 26.7529C186.482 26.7529 187.257 26.9411 187.904 27.3174C188.557 27.6937 189.061 28.2332 189.415 28.936C189.769 29.6388 189.946 30.4772 189.946 31.4512V31.4678C189.946 32.4473 189.769 33.2884 189.415 33.9912C189.066 34.694 188.565 35.2363 187.912 35.6182C187.265 35.9945 186.487 36.1826 185.58 36.1826ZM185.58 34.5059C186.056 34.5059 186.46 34.3869 186.792 34.1489C187.129 33.9054 187.387 33.5596 187.564 33.1113C187.741 32.6576 187.829 32.1125 187.829 31.4761V31.4595C187.829 30.8175 187.741 30.2725 187.564 29.8242C187.387 29.3704 187.129 29.0246 186.792 28.7866C186.46 28.5431 186.056 28.4214 185.58 28.4214C185.104 28.4214 184.697 28.5431 184.36 28.7866C184.022 29.0246 183.765 29.3704 183.588 29.8242C183.411 30.2725 183.322 30.8175 183.322 31.4595V31.4761C183.322 32.1125 183.411 32.6576 183.588 33.1113C183.765 33.5651 184.019 33.911 184.351 34.1489C184.689 34.3869 185.098 34.5059 185.58 34.5059ZM191.591 36V26.9272H193.658V28.3218H193.799C194.015 27.8293 194.342 27.4447 194.779 27.168C195.216 26.8913 195.761 26.7529 196.414 26.7529C197.427 26.7529 198.201 27.0462 198.738 27.6328C199.275 28.2194 199.543 29.0522 199.543 30.1313V36H197.477V30.6128C197.477 29.9045 197.327 29.3732 197.028 29.019C196.735 28.6649 196.276 28.4878 195.65 28.4878C195.241 28.4878 194.887 28.5791 194.588 28.7617C194.289 28.9443 194.059 29.2017 193.899 29.5337C193.738 29.8657 193.658 30.2586 193.658 30.7124V36H191.591Z" fill="black"/>
<path d="M68.3316 57V53.0581L65.0816 47.8403H66.3829L68.8521 51.9092H68.9537L71.4229 47.8403H72.7242L69.4742 53.0581V57H68.3316ZM75.8454 57.1206C75.198 57.1206 74.6373 56.9788 74.1633 56.6953C73.6936 56.4076 73.3296 55.9992 73.0715 55.4702C72.8176 54.9412 72.6906 54.3128 72.6906 53.585V53.5723C72.6906 52.8402 72.8176 52.2096 73.0715 51.6807C73.3296 51.1517 73.6936 50.7454 74.1633 50.4619C74.6373 50.1784 75.198 50.0366 75.8454 50.0366C76.4971 50.0366 77.0578 50.1784 77.5276 50.4619C77.9973 50.7454 78.3591 51.1517 78.613 51.6807C78.8711 52.2096 79.0002 52.8402 79.0002 53.5723V53.585C79.0002 54.3128 78.8711 54.9412 78.613 55.4702C78.3591 55.9992 77.9973 56.4076 77.5276 56.6953C77.0578 56.9788 76.4971 57.1206 75.8454 57.1206ZM75.8454 56.1431C76.2771 56.1431 76.6431 56.0415 76.9436 55.8384C77.244 55.6353 77.4725 55.3433 77.6291 54.9624C77.7899 54.5815 77.8703 54.1224 77.8703 53.585V53.5723C77.8703 53.0306 77.7899 52.5693 77.6291 52.1885C77.4725 51.8076 77.244 51.5177 76.9436 51.3188C76.6431 51.1157 76.2771 51.0142 75.8454 51.0142C75.4138 51.0142 75.0477 51.1157 74.7473 51.3188C74.4468 51.5177 74.2162 51.8076 74.0554 52.1885C73.8988 52.5693 73.8205 53.0306 73.8205 53.5723V53.585C73.8205 54.1224 73.8988 54.5815 74.0554 54.9624C74.2162 55.3433 74.4468 55.6353 74.7473 55.8384C75.0477 56.0415 75.4138 56.1431 75.8454 56.1431ZM82.9276 57.1206C82.4113 57.1206 81.9776 57.0233 81.6263 56.8286C81.2751 56.6297 81.0106 56.342 80.8329 55.9653C80.6594 55.5845 80.5726 55.1253 80.5726 54.5879V50.1572H81.6771V54.3213C81.6771 54.9349 81.7956 55.3919 82.0326 55.6924C82.2738 55.9928 82.6673 56.1431 83.2132 56.1431C83.5137 56.1431 83.7782 56.0986 84.0067 56.0098C84.2394 55.9209 84.4341 55.7939 84.5907 55.6289C84.7473 55.4596 84.8636 55.2565 84.9398 55.0195C85.0202 54.7783 85.0604 54.5075 85.0604 54.207V50.1572H86.1649V57H85.0604V55.978H84.9588C84.8488 56.2192 84.6986 56.4266 84.5082 56.6001C84.3177 56.7694 84.0892 56.8984 83.8226 56.9873C83.5602 57.0762 83.2619 57.1206 82.9276 57.1206ZM88.1499 57V50.1572H89.2544V51.1729H89.3559C89.4871 50.8132 89.7093 50.5339 90.0224 50.335C90.3356 50.1361 90.7228 50.0366 91.1841 50.0366C91.2899 50.0366 91.3935 50.043 91.4951 50.0557C91.6009 50.0641 91.6813 50.0726 91.7363 50.0811V51.1538C91.622 51.1326 91.5099 51.1178 91.3999 51.1094C91.2941 51.0967 91.1798 51.0903 91.0571 51.0903C90.7059 51.0903 90.3948 51.1602 90.124 51.2998C89.8532 51.4395 89.6395 51.6341 89.4829 51.8838C89.3305 52.1335 89.2544 52.4255 89.2544 52.7598V57H88.1499ZM96.6648 57V47.4404H97.7693V57H96.6648ZM102.623 57.1206C101.976 57.1206 101.415 56.9788 100.941 56.6953C100.472 56.4076 100.108 55.9992 99.8495 55.4702C99.5956 54.9412 99.4686 54.3128 99.4686 53.585V53.5723C99.4686 52.8402 99.5956 52.2096 99.8495 51.6807C100.108 51.1517 100.472 50.7454 100.941 50.4619C101.415 50.1784 101.976 50.0366 102.623 50.0366C103.275 50.0366 103.836 50.1784 104.306 50.4619C104.775 50.7454 105.137 51.1517 105.391 51.6807C105.649 52.2096 105.778 52.8402 105.778 53.5723V53.585C105.778 54.3128 105.649 54.9412 105.391 55.4702C105.137 55.9992 104.775 56.4076 104.306 56.6953C103.836 56.9788 103.275 57.1206 102.623 57.1206ZM102.623 56.1431C103.055 56.1431 103.421 56.0415 103.722 55.8384C104.022 55.6353 104.251 55.3433 104.407 54.9624C104.568 54.5815 104.648 54.1224 104.648 53.585V53.5723C104.648 53.0306 104.568 52.5693 104.407 52.1885C104.251 51.8076 104.022 51.5177 103.722 51.3188C103.421 51.1157 103.055 51.0142 102.623 51.0142C102.192 51.0142 101.826 51.1157 101.525 51.3188C101.225 51.5177 100.994 51.8076 100.833 52.1885C100.677 52.5693 100.598 53.0306 100.598 53.5723V53.585C100.598 54.1224 100.677 54.5815 100.833 54.9624C100.994 55.3433 101.225 55.6353 101.525 55.8384C101.826 56.0415 102.192 56.1431 102.623 56.1431ZM110.213 57.1206C109.574 57.1206 109.02 56.9746 108.55 56.6826C108.081 56.3906 107.717 55.978 107.458 55.4448C107.2 54.9116 107.071 54.2832 107.071 53.5596V53.5469C107.071 52.8359 107.198 52.2181 107.452 51.6934C107.71 51.1686 108.074 50.7624 108.544 50.4746C109.014 50.1826 109.568 50.0366 110.207 50.0366C110.761 50.0366 111.24 50.134 111.642 50.3286C112.044 50.5233 112.365 50.7856 112.606 51.1157C112.848 51.4416 113.002 51.8076 113.07 52.2139L113.076 52.252H111.978L111.972 52.2329C111.887 51.8944 111.694 51.6066 111.394 51.3696C111.094 51.1326 110.698 51.0142 110.207 51.0142C109.797 51.0142 109.441 51.1178 109.141 51.3252C108.84 51.5326 108.607 51.8267 108.442 52.2075C108.282 52.5841 108.201 53.0306 108.201 53.5469V53.5596C108.201 54.0843 108.284 54.5413 108.449 54.9307C108.614 55.3158 108.847 55.6141 109.147 55.8257C109.447 56.0373 109.801 56.1431 110.207 56.1431C110.668 56.1431 111.045 56.0436 111.337 55.8447C111.629 55.6458 111.838 55.356 111.965 54.9751L111.978 54.937L113.07 54.9307L113.057 55.0005C112.964 55.411 112.799 55.777 112.562 56.0986C112.325 56.416 112.012 56.6657 111.623 56.8477C111.233 57.0296 110.763 57.1206 110.213 57.1206ZM116.489 57.1206C116.058 57.1206 115.668 57.0381 115.321 56.873C114.979 56.708 114.706 56.4731 114.503 56.1685C114.304 55.8638 114.204 55.5041 114.204 55.0894V55.0767C114.204 54.6704 114.302 54.3234 114.496 54.0356C114.691 53.7437 114.974 53.5151 115.347 53.3501C115.719 53.1851 116.17 53.0877 116.699 53.0581L119.213 52.9058V53.7881L116.832 53.9404C116.312 53.9701 115.931 54.078 115.69 54.2642C115.453 54.4504 115.334 54.7127 115.334 55.0513V55.064C115.334 55.411 115.465 55.6818 115.728 55.8765C115.99 56.0669 116.32 56.1621 116.718 56.1621C117.095 56.1621 117.429 56.0881 117.721 55.9399C118.013 55.7876 118.241 55.5824 118.406 55.3242C118.576 55.0661 118.66 54.7741 118.66 54.4482V52.3154C118.66 51.8923 118.531 51.5706 118.273 51.3506C118.019 51.1263 117.636 51.0142 117.124 51.0142C116.714 51.0142 116.377 51.0882 116.115 51.2363C115.852 51.3802 115.677 51.5854 115.588 51.8521L115.582 51.8711H114.477L114.484 51.833C114.543 51.4733 114.691 51.1602 114.928 50.8936C115.169 50.6227 115.48 50.4132 115.861 50.2651C116.242 50.1128 116.676 50.0366 117.162 50.0366C117.721 50.0366 118.193 50.1276 118.578 50.3096C118.967 50.4915 119.261 50.7539 119.46 51.0967C119.663 51.4352 119.765 51.8415 119.765 52.3154V57H118.66V55.9907H118.559C118.415 56.2319 118.239 56.4372 118.032 56.6064C117.829 56.7757 117.598 56.9048 117.34 56.9937C117.082 57.0783 116.798 57.1206 116.489 57.1206ZM124.136 57.0508C123.434 57.0508 122.924 56.909 122.607 56.6255C122.294 56.342 122.137 55.8743 122.137 55.2227V51.0713H121.058V50.1572H122.137V48.3862H123.28V50.1572H124.778V51.0713H123.28V54.9434C123.28 55.3454 123.356 55.6353 123.508 55.813C123.66 55.9865 123.914 56.0732 124.27 56.0732C124.367 56.0732 124.45 56.0711 124.517 56.0669C124.589 56.0627 124.676 56.0563 124.778 56.0479V56.9873C124.672 57.0042 124.566 57.019 124.46 57.0317C124.354 57.0444 124.247 57.0508 124.136 57.0508ZM126.375 57V50.1572H127.48V57H126.375ZM126.934 48.8369C126.727 48.8369 126.547 48.7629 126.394 48.6147C126.246 48.4624 126.172 48.2826 126.172 48.0752C126.172 47.8636 126.246 47.6838 126.394 47.5356C126.547 47.3875 126.727 47.3135 126.934 47.3135C127.146 47.3135 127.325 47.3875 127.474 47.5356C127.622 47.6838 127.696 47.8636 127.696 48.0752C127.696 48.2826 127.622 48.4624 127.474 48.6147C127.325 48.7629 127.146 48.8369 126.934 48.8369ZM132.296 57.1206C131.648 57.1206 131.088 56.9788 130.614 56.6953C130.144 56.4076 129.78 55.9992 129.522 55.4702C129.268 54.9412 129.141 54.3128 129.141 53.585V53.5723C129.141 52.8402 129.268 52.2096 129.522 51.6807C129.78 51.1517 130.144 50.7454 130.614 50.4619C131.088 50.1784 131.648 50.0366 132.296 50.0366C132.948 50.0366 133.508 50.1784 133.978 50.4619C134.448 50.7454 134.81 51.1517 135.063 51.6807C135.322 52.2096 135.451 52.8402 135.451 53.5723V53.585C135.451 54.3128 135.322 54.9412 135.063 55.4702C134.81 55.9992 134.448 56.4076 133.978 56.6953C133.508 56.9788 132.948 57.1206 132.296 57.1206ZM132.296 56.1431C132.728 56.1431 133.094 56.0415 133.394 55.8384C133.694 55.6353 133.923 55.3433 134.08 54.9624C134.24 54.5815 134.321 54.1224 134.321 53.585V53.5723C134.321 53.0306 134.24 52.5693 134.08 52.1885C133.923 51.8076 133.694 51.5177 133.394 51.3188C133.094 51.1157 132.728 51.0142 132.296 51.0142C131.864 51.0142 131.498 51.1157 131.198 51.3188C130.897 51.5177 130.667 51.8076 130.506 52.1885C130.349 52.5693 130.271 53.0306 130.271 53.5723V53.585C130.271 54.1224 130.349 54.5815 130.506 54.9624C130.667 55.3433 130.897 55.6353 131.198 55.8384C131.498 56.0415 131.864 56.1431 132.296 56.1431ZM137.087 57V50.1572H138.191V51.1855H138.293C138.466 50.8216 138.716 50.5402 139.042 50.3413C139.367 50.1382 139.782 50.0366 140.286 50.0366C141.056 50.0366 141.646 50.2567 142.057 50.6968C142.471 51.1326 142.679 51.7568 142.679 52.5693V57H141.574V52.8359C141.574 52.2181 141.443 51.7611 141.181 51.4648C140.923 51.1644 140.521 51.0142 139.975 51.0142C139.611 51.0142 139.296 51.0924 139.029 51.249C138.762 51.4056 138.555 51.6278 138.407 51.9155C138.263 52.2033 138.191 52.5482 138.191 52.9502V57H137.087ZM149.499 57L147.582 50.1572H148.686L150.032 55.6289H150.134L151.663 50.1572H152.711L154.241 55.6289H154.342L155.688 50.1572H156.786L154.869 57H153.758L152.228 51.7061H152.127L150.603 57H149.499ZM159.856 57.1206C159.425 57.1206 159.035 57.0381 158.688 56.873C158.346 56.708 158.073 56.4731 157.87 56.1685C157.671 55.8638 157.571 55.5041 157.571 55.0894V55.0767C157.571 54.6704 157.669 54.3234 157.863 54.0356C158.058 53.7437 158.341 53.5151 158.714 53.3501C159.086 53.1851 159.537 53.0877 160.066 53.0581L162.58 52.9058V53.7881L160.199 53.9404C159.679 53.9701 159.298 54.078 159.057 54.2642C158.82 54.4504 158.701 54.7127 158.701 55.0513V55.064C158.701 55.411 158.832 55.6818 159.095 55.8765C159.357 56.0669 159.687 56.1621 160.085 56.1621C160.462 56.1621 160.796 56.0881 161.088 55.9399C161.38 55.7876 161.608 55.5824 161.773 55.3242C161.943 55.0661 162.027 54.7741 162.027 54.4482V52.3154C162.027 51.8923 161.898 51.5706 161.64 51.3506C161.386 51.1263 161.003 51.0142 160.491 51.0142C160.081 51.0142 159.744 51.0882 159.482 51.2363C159.22 51.3802 159.044 51.5854 158.955 51.8521L158.949 51.8711H157.844L157.851 51.833C157.91 51.4733 158.058 51.1602 158.295 50.8936C158.536 50.6227 158.847 50.4132 159.228 50.2651C159.609 50.1128 160.043 50.0366 160.529 50.0366C161.088 50.0366 161.56 50.1276 161.945 50.3096C162.334 50.4915 162.628 50.7539 162.827 51.0967C163.03 51.4352 163.132 51.8415 163.132 52.3154V57H162.027V55.9907H161.926C161.782 56.2319 161.606 56.4372 161.399 56.6064C161.196 56.7757 160.965 56.9048 160.707 56.9937C160.449 57.0783 160.165 57.1206 159.856 57.1206ZM167.421 57.1206C166.913 57.1206 166.465 57.0444 166.075 56.8921C165.686 56.7355 165.373 56.5176 165.136 56.2383C164.903 55.959 164.766 55.631 164.723 55.2544H165.853C165.946 55.5379 166.128 55.7664 166.399 55.9399C166.67 56.1134 167.023 56.2002 167.459 56.2002C167.768 56.2002 168.039 56.1558 168.272 56.0669C168.509 55.9738 168.695 55.849 168.83 55.6924C168.966 55.5316 169.033 55.3475 169.033 55.1401V55.1274C169.033 54.8947 168.94 54.6979 168.754 54.5371C168.568 54.3721 168.263 54.2388 167.84 54.1372L166.78 53.8833C166.353 53.7817 166.001 53.6506 165.726 53.4897C165.451 53.3247 165.248 53.1237 165.117 52.8867C164.986 52.6455 164.92 52.362 164.92 52.0361V52.0298C164.92 51.6489 165.03 51.3083 165.25 51.0078C165.474 50.7074 165.779 50.4704 166.164 50.2969C166.549 50.1234 166.983 50.0366 167.465 50.0366C167.944 50.0366 168.367 50.1128 168.735 50.2651C169.107 50.4132 169.406 50.6248 169.63 50.8999C169.859 51.175 169.998 51.4987 170.049 51.8711H168.964C168.892 51.6003 168.727 51.3802 168.468 51.2109C168.21 51.0417 167.874 50.957 167.459 50.957C167.188 50.957 166.947 51.0015 166.735 51.0903C166.524 51.175 166.357 51.2935 166.234 51.4458C166.111 51.5981 166.05 51.7759 166.05 51.979V51.9917C166.05 52.144 166.09 52.2795 166.171 52.3979C166.251 52.5164 166.376 52.6201 166.545 52.709C166.714 52.7979 166.932 52.8761 167.199 52.9438L168.253 53.1978C168.896 53.3543 169.374 53.5786 169.687 53.8706C170.005 54.1626 170.163 54.554 170.163 55.0449V55.0576C170.163 55.4639 170.043 55.8236 169.801 56.1367C169.56 56.4456 169.232 56.6868 168.818 56.8604C168.407 57.0339 167.942 57.1206 167.421 57.1206ZM178.037 57V53.0581L174.787 47.8403H176.088L178.558 51.9092H178.659L181.128 47.8403H182.43L179.18 53.0581V57H178.037ZM185.551 57.1206C184.903 57.1206 184.343 56.9788 183.869 56.6953C183.399 56.4076 183.035 55.9992 182.777 55.4702C182.523 54.9412 182.396 54.3128 182.396 53.585V53.5723C182.396 52.8402 182.523 52.2096 182.777 51.6807C183.035 51.1517 183.399 50.7454 183.869 50.4619C184.343 50.1784 184.903 50.0366 185.551 50.0366C186.203 50.0366 186.763 50.1784 187.233 50.4619C187.703 50.7454 188.064 51.1517 188.318 51.6807C188.577 52.2096 188.706 52.8402 188.706 53.5723V53.585C188.706 54.3128 188.577 54.9412 188.318 55.4702C188.064 55.9992 187.703 56.4076 187.233 56.6953C186.763 56.9788 186.203 57.1206 185.551 57.1206ZM185.551 56.1431C185.982 56.1431 186.349 56.0415 186.649 55.8384C186.949 55.6353 187.178 55.3433 187.335 54.9624C187.495 54.5815 187.576 54.1224 187.576 53.585V53.5723C187.576 53.0306 187.495 52.5693 187.335 52.1885C187.178 51.8076 186.949 51.5177 186.649 51.3188C186.349 51.1157 185.982 51.0142 185.551 51.0142C185.119 51.0142 184.753 51.1157 184.453 51.3188C184.152 51.5177 183.922 51.8076 183.761 52.1885C183.604 52.5693 183.526 53.0306 183.526 53.5723V53.585C183.526 54.1224 183.604 54.5815 183.761 54.9624C183.922 55.3433 184.152 55.6353 184.453 55.8384C184.753 56.0415 185.119 56.1431 185.551 56.1431ZM192.633 57.1206C192.117 57.1206 191.683 57.0233 191.332 56.8286C190.98 56.6297 190.716 56.342 190.538 55.9653C190.365 55.5845 190.278 55.1253 190.278 54.5879V50.1572H191.382V54.3213C191.382 54.9349 191.501 55.3919 191.738 55.6924C191.979 55.9928 192.373 56.1431 192.919 56.1431C193.219 56.1431 193.484 56.0986 193.712 56.0098C193.945 55.9209 194.139 55.7939 194.296 55.6289C194.453 55.4596 194.569 55.2565 194.645 55.0195C194.726 54.7783 194.766 54.5075 194.766 54.207V50.1572H195.87V57H194.766V55.978H194.664C194.554 56.2192 194.404 56.4266 194.214 56.6001C194.023 56.7694 193.795 56.8984 193.528 56.9873C193.266 57.0762 192.967 57.1206 192.633 57.1206ZM197.855 57V50.1572H198.96V51.1729H199.061C199.192 50.8132 199.415 50.5339 199.728 50.335C200.041 50.1361 200.428 50.0366 200.889 50.0366C200.995 50.0366 201.099 50.043 201.2 50.0557C201.306 50.0641 201.387 50.0726 201.442 50.0811V51.1538C201.327 51.1326 201.215 51.1178 201.105 51.1094C200.999 51.0967 200.885 51.0903 200.762 51.0903C200.411 51.0903 200.1 51.1602 199.829 51.2998C199.559 51.4395 199.345 51.6341 199.188 51.8838C199.036 52.1335 198.96 52.4255 198.96 52.7598V57H197.855ZM43.6402 75V65.4404H44.7447V75H43.6402ZM49.5988 75.1206C48.9514 75.1206 48.3907 74.9788 47.9167 74.6953C47.447 74.4076 47.083 73.9992 46.8249 73.4702C46.571 72.9412 46.444 72.3128 46.444 71.585V71.5723C46.444 70.8402 46.571 70.2096 46.8249 69.6807C47.083 69.1517 47.447 68.7454 47.9167 68.4619C48.3907 68.1784 48.9514 68.0366 49.5988 68.0366C50.2505 68.0366 50.8112 68.1784 51.281 68.4619C51.7507 68.7454 52.1125 69.1517 52.3664 69.6807C52.6246 70.2096 52.7536 70.8402 52.7536 71.5723V71.585C52.7536 72.3128 52.6246 72.9412 52.3664 73.4702C52.1125 73.9992 51.7507 74.4076 51.281 74.6953C50.8112 74.9788 50.2505 75.1206 49.5988 75.1206ZM49.5988 74.1431C50.0305 74.1431 50.3965 74.0415 50.697 73.8384C50.9974 73.6353 51.2259 73.3433 51.3825 72.9624C51.5433 72.5815 51.6237 72.1224 51.6237 71.585V71.5723C51.6237 71.0306 51.5433 70.5693 51.3825 70.1885C51.2259 69.8076 50.9974 69.5177 50.697 69.3188C50.3965 69.1157 50.0305 69.0142 49.5988 69.0142C49.1672 69.0142 48.8011 69.1157 48.5007 69.3188C48.2002 69.5177 47.9696 69.8076 47.8088 70.1885C47.6522 70.5693 47.5739 71.0306 47.5739 71.5723V71.585C47.5739 72.1224 47.6522 72.5815 47.8088 72.9624C47.9696 73.3433 48.2002 73.6353 48.5007 73.8384C48.8011 74.0415 49.1672 74.1431 49.5988 74.1431ZM57.1888 75.1206C56.5498 75.1206 55.9954 74.9746 55.5257 74.6826C55.056 74.3906 54.6921 73.978 54.4339 73.4448C54.1758 72.9116 54.0467 72.2832 54.0467 71.5596V71.5469C54.0467 70.8359 54.1737 70.2181 54.4276 69.6934C54.6857 69.1686 55.0496 68.7624 55.5194 68.4746C55.9891 68.1826 56.5435 68.0366 57.1825 68.0366C57.7368 68.0366 58.215 68.134 58.617 68.3286C59.019 68.5233 59.3407 68.7856 59.5819 69.1157C59.8231 69.4416 59.9775 69.8076 60.0452 70.2139L60.0516 70.252H58.9535L58.9471 70.2329C58.8625 69.8944 58.6699 69.6066 58.3695 69.3696C58.069 69.1326 57.6733 69.0142 57.1825 69.0142C56.772 69.0142 56.4165 69.1178 56.116 69.3252C55.8156 69.5326 55.5828 69.8267 55.4178 70.2075C55.257 70.5841 55.1766 71.0306 55.1766 71.5469V71.5596C55.1766 72.0843 55.2591 72.5413 55.4242 72.9307C55.5892 73.3158 55.8219 73.6141 56.1224 73.8257C56.4229 74.0373 56.7762 74.1431 57.1825 74.1431C57.6437 74.1431 58.0203 74.0436 58.3123 73.8447C58.6043 73.6458 58.8138 73.356 58.9408 72.9751L58.9535 72.937L60.0452 72.9307L60.0326 73.0005C59.9395 73.411 59.7744 73.777 59.5374 74.0986C59.3005 74.416 58.9873 74.6657 58.598 74.8477C58.2087 75.0296 57.7389 75.1206 57.1888 75.1206ZM63.4648 75.1206C63.0332 75.1206 62.6438 75.0381 62.2968 74.873C61.9541 74.708 61.6811 74.4731 61.478 74.1685C61.2791 73.8638 61.1797 73.5041 61.1797 73.0894V73.0767C61.1797 72.6704 61.277 72.3234 61.4716 72.0356C61.6663 71.7437 61.9498 71.5151 62.3222 71.3501C62.6946 71.1851 63.1453 71.0877 63.6743 71.0581L66.188 70.9058V71.7881L63.8076 71.9404C63.2871 71.9701 62.9062 72.078 62.665 72.2642C62.428 72.4504 62.3095 72.7127 62.3095 73.0513V73.064C62.3095 73.411 62.4407 73.6818 62.7031 73.8765C62.9655 74.0669 63.2955 74.1621 63.6933 74.1621C64.07 74.1621 64.4043 74.0881 64.6963 73.9399C64.9882 73.7876 65.2168 73.5824 65.3818 73.3242C65.5511 73.0661 65.6357 72.7741 65.6357 72.4482V70.3154C65.6357 69.8923 65.5066 69.5706 65.2485 69.3506C64.9946 69.1263 64.6116 69.0142 64.0996 69.0142C63.6891 69.0142 63.3527 69.0882 63.0903 69.2363C62.8279 69.3802 62.6523 69.5854 62.5634 69.8521L62.5571 69.8711H61.4526L61.4589 69.833C61.5182 69.4733 61.6663 69.1602 61.9033 68.8936C62.1445 68.6227 62.4555 68.4132 62.8364 68.2651C63.2172 68.1128 63.651 68.0366 64.1377 68.0366C64.6963 68.0366 65.1681 68.1276 65.5532 68.3096C65.9425 68.4915 66.2366 68.7539 66.4355 69.0967C66.6386 69.4352 66.7402 69.8415 66.7402 70.3154V75H65.6357V73.9907H65.5341C65.3903 74.2319 65.2146 74.4372 65.0073 74.6064C64.8042 74.7757 64.5735 74.9048 64.3154 74.9937C64.0573 75.0783 63.7737 75.1206 63.4648 75.1206ZM71.1119 75.0508C70.4094 75.0508 69.8995 74.909 69.5821 74.6255C69.269 74.342 69.1124 73.8743 69.1124 73.2227V69.0713H68.0333V68.1572H69.1124V66.3862H70.255V68.1572H71.753V69.0713H70.255V72.9434C70.255 73.3454 70.3311 73.6353 70.4835 73.813C70.6358 73.9865 70.8897 74.0732 71.2452 74.0732C71.3425 74.0732 71.4251 74.0711 71.4928 74.0669C71.5647 74.0627 71.6515 74.0563 71.753 74.0479V74.9873C71.6472 75.0042 71.5414 75.019 71.4356 75.0317C71.3298 75.0444 71.2219 75.0508 71.1119 75.0508ZM73.3508 75V68.1572H74.4553V75H73.3508ZM73.9094 66.8369C73.702 66.8369 73.5222 66.7629 73.3698 66.6147C73.2217 66.4624 73.1477 66.2826 73.1477 66.0752C73.1477 65.8636 73.2217 65.6838 73.3698 65.5356C73.5222 65.3875 73.702 65.3135 73.9094 65.3135C74.121 65.3135 74.3008 65.3875 74.4489 65.5356C74.5971 65.6838 74.6711 65.8636 74.6711 66.0752C74.6711 66.2826 74.5971 66.4624 74.4489 66.6147C74.3008 66.7629 74.121 66.8369 73.9094 66.8369ZM79.2713 75.1206C78.6239 75.1206 78.0632 74.9788 77.5892 74.6953C77.1195 74.4076 76.7555 73.9992 76.4974 73.4702C76.2435 72.9412 76.1166 72.3128 76.1166 71.585V71.5723C76.1166 70.8402 76.2435 70.2096 76.4974 69.6807C76.7555 69.1517 77.1195 68.7454 77.5892 68.4619C78.0632 68.1784 78.6239 68.0366 79.2713 68.0366C79.923 68.0366 80.4837 68.1784 80.9535 68.4619C81.4232 68.7454 81.785 69.1517 82.0389 69.6807C82.2971 70.2096 82.4261 70.8402 82.4261 71.5723V71.585C82.4261 72.3128 82.2971 72.9412 82.0389 73.4702C81.785 73.9992 81.4232 74.4076 80.9535 74.6953C80.4837 74.9788 79.923 75.1206 79.2713 75.1206ZM79.2713 74.1431C79.703 74.1431 80.069 74.0415 80.3695 73.8384C80.6699 73.6353 80.8985 73.3433 81.055 72.9624C81.2158 72.5815 81.2962 72.1224 81.2962 71.585V71.5723C81.2962 71.0306 81.2158 70.5693 81.055 70.1885C80.8985 69.8076 80.6699 69.5177 80.3695 69.3188C80.069 69.1157 79.703 69.0142 79.2713 69.0142C78.8397 69.0142 78.4736 69.1157 78.1732 69.3188C77.8727 69.5177 77.6421 69.8076 77.4813 70.1885C77.3247 70.5693 77.2464 71.0306 77.2464 71.5723V71.585C77.2464 72.1224 77.3247 72.5815 77.4813 72.9624C77.6421 73.3433 77.8727 73.6353 78.1732 73.8384C78.4736 74.0415 78.8397 74.1431 79.2713 74.1431ZM84.062 75V68.1572H85.1665V69.1855H85.268C85.4415 68.8216 85.6912 68.5402 86.0171 68.3413C86.3429 68.1382 86.7576 68.0366 87.2612 68.0366C88.0314 68.0366 88.6217 68.2567 89.0322 68.6968C89.4469 69.1326 89.6543 69.7568 89.6543 70.5693V75H88.5498V70.8359C88.5498 70.2181 88.4186 69.7611 88.1562 69.4648C87.8981 69.1644 87.4961 69.0142 86.9502 69.0142C86.5862 69.0142 86.271 69.0924 86.0044 69.249C85.7378 69.4056 85.5304 69.6278 85.3823 69.9155C85.2384 70.2033 85.1665 70.5482 85.1665 70.9502V75H84.062ZM96.4743 75L94.5574 68.1572H95.6618L97.0075 73.6289H97.1091L98.6389 68.1572H99.6863L101.216 73.6289H101.318L102.663 68.1572H103.761L101.844 75H100.734L99.2038 69.7061H99.1023L97.5788 75H96.4743ZM106.832 75.1206C106.4 75.1206 106.011 75.0381 105.664 74.873C105.321 74.708 105.048 74.4731 104.845 74.1685C104.646 73.8638 104.547 73.5041 104.547 73.0894V73.0767C104.547 72.6704 104.644 72.3234 104.839 72.0356C105.033 71.7437 105.317 71.5151 105.689 71.3501C106.062 71.1851 106.512 71.0877 107.041 71.0581L109.555 70.9058V71.7881L107.175 71.9404C106.654 71.9701 106.273 72.078 106.032 72.2642C105.795 72.4504 105.677 72.7127 105.677 73.0513V73.064C105.677 73.411 105.808 73.6818 106.07 73.8765C106.333 74.0669 106.663 74.1621 107.06 74.1621C107.437 74.1621 107.771 74.0881 108.063 73.9399C108.355 73.7876 108.584 73.5824 108.749 73.3242C108.918 73.0661 109.003 72.7741 109.003 72.4482V70.3154C109.003 69.8923 108.874 69.5706 108.616 69.3506C108.362 69.1263 107.979 69.0142 107.467 69.0142C107.056 69.0142 106.72 69.0882 106.457 69.2363C106.195 69.3802 106.019 69.5854 105.931 69.8521L105.924 69.8711H104.82L104.826 69.833C104.885 69.4733 105.033 69.1602 105.27 68.8936C105.512 68.6227 105.823 68.4132 106.203 68.2651C106.584 68.1128 107.018 68.0366 107.505 68.0366C108.063 68.0366 108.535 68.1276 108.92 68.3096C109.31 68.4915 109.604 68.7539 109.803 69.0967C110.006 69.4352 110.107 69.8415 110.107 70.3154V75H109.003V73.9907H108.901C108.757 74.2319 108.582 74.4372 108.374 74.6064C108.171 74.7757 107.941 74.9048 107.682 74.9937C107.424 75.0783 107.141 75.1206 106.832 75.1206ZM114.396 75.1206C113.889 75.1206 113.44 75.0444 113.051 74.8921C112.661 74.7355 112.348 74.5176 112.111 74.2383C111.879 73.959 111.741 73.631 111.699 73.2544H112.829C112.922 73.5379 113.104 73.7664 113.374 73.9399C113.645 74.1134 113.999 74.2002 114.435 74.2002C114.743 74.2002 115.014 74.1558 115.247 74.0669C115.484 73.9738 115.67 73.849 115.806 73.6924C115.941 73.5316 116.009 73.3475 116.009 73.1401V73.1274C116.009 72.8947 115.916 72.6979 115.729 72.5371C115.543 72.3721 115.239 72.2388 114.815 72.1372L113.755 71.8833C113.328 71.7817 112.977 71.6506 112.702 71.4897C112.427 71.3247 112.223 71.1237 112.092 70.8867C111.961 70.6455 111.895 70.362 111.895 70.0361V70.0298C111.895 69.6489 112.006 69.3083 112.226 69.0078C112.45 68.7074 112.755 68.4704 113.14 68.2969C113.525 68.1234 113.958 68.0366 114.441 68.0366C114.919 68.0366 115.342 68.1128 115.71 68.2651C116.083 68.4132 116.381 68.6248 116.605 68.8999C116.834 69.175 116.974 69.4987 117.024 69.8711H115.939C115.867 69.6003 115.702 69.3802 115.444 69.2109C115.186 69.0417 114.849 68.957 114.435 68.957C114.164 68.957 113.923 69.0015 113.711 69.0903C113.499 69.175 113.332 69.2935 113.209 69.4458C113.087 69.5981 113.025 69.7759 113.025 69.979V69.9917C113.025 70.144 113.066 70.2795 113.146 70.3979C113.226 70.5164 113.351 70.6201 113.52 70.709C113.69 70.7979 113.908 70.8761 114.174 70.9438L115.228 71.1978C115.871 71.3543 116.349 71.5786 116.663 71.8706C116.98 72.1626 117.139 72.554 117.139 73.0449V73.0576C117.139 73.4639 117.018 73.8236 116.777 74.1367C116.536 74.4456 116.208 74.6868 115.793 74.8604C115.382 75.0339 114.917 75.1206 114.396 75.1206ZM125.012 75V71.0581L121.762 65.8403H123.064L125.533 69.9092H125.635L128.104 65.8403H129.405L126.155 71.0581V75H125.012ZM132.526 75.1206C131.879 75.1206 131.318 74.9788 130.844 74.6953C130.374 74.4076 130.01 73.9992 129.752 73.4702C129.498 72.9412 129.371 72.3128 129.371 71.585V71.5723C129.371 70.8402 129.498 70.2096 129.752 69.6807C130.01 69.1517 130.374 68.7454 130.844 68.4619C131.318 68.1784 131.879 68.0366 132.526 68.0366C133.178 68.0366 133.739 68.1784 134.208 68.4619C134.678 68.7454 135.04 69.1517 135.294 69.6807C135.552 70.2096 135.681 70.8402 135.681 71.5723V71.585C135.681 72.3128 135.552 72.9412 135.294 73.4702C135.04 73.9992 134.678 74.4076 134.208 74.6953C133.739 74.9788 133.178 75.1206 132.526 75.1206ZM132.526 74.1431C132.958 74.1431 133.324 74.0415 133.624 73.8384C133.925 73.6353 134.153 73.3433 134.31 72.9624C134.471 72.5815 134.551 72.1224 134.551 71.585V71.5723C134.551 71.0306 134.471 70.5693 134.31 70.1885C134.153 69.8076 133.925 69.5177 133.624 69.3188C133.324 69.1157 132.958 69.0142 132.526 69.0142C132.095 69.0142 131.729 69.1157 131.428 69.3188C131.128 69.5177 130.897 69.8076 130.736 70.1885C130.58 70.5693 130.501 71.0306 130.501 71.5723V71.585C130.501 72.1224 130.58 72.5815 130.736 72.9624C130.897 73.3433 131.128 73.6353 131.428 73.8384C131.729 74.0415 132.095 74.1431 132.526 74.1431ZM139.608 75.1206C139.092 75.1206 138.658 75.0233 138.307 74.8286C137.956 74.6297 137.691 74.342 137.514 73.9653C137.34 73.5845 137.253 73.1253 137.253 72.5879V68.1572H138.358V72.3213C138.358 72.9349 138.476 73.3919 138.713 73.6924C138.955 73.9928 139.348 74.1431 139.894 74.1431C140.194 74.1431 140.459 74.0986 140.688 74.0098C140.92 73.9209 141.115 73.7939 141.271 73.6289C141.428 73.4596 141.544 73.2565 141.621 73.0195C141.701 72.7783 141.741 72.5075 141.741 72.207V68.1572H142.846V75H141.741V73.978H141.64C141.53 74.2192 141.379 74.4266 141.189 74.6001C140.999 74.7694 140.77 74.8984 140.503 74.9873C140.241 75.0762 139.943 75.1206 139.608 75.1206ZM144.831 75V68.1572H145.935V69.1729H146.037C146.168 68.8132 146.39 68.5339 146.703 68.335C147.016 68.1361 147.404 68.0366 147.865 68.0366C147.971 68.0366 148.074 68.043 148.176 68.0557C148.282 68.0641 148.362 68.0726 148.417 68.0811V69.1538C148.303 69.1326 148.191 69.1178 148.081 69.1094C147.975 69.0967 147.861 69.0903 147.738 69.0903C147.387 69.0903 147.076 69.1602 146.805 69.2998C146.534 69.4395 146.32 69.6341 146.164 69.8838C146.011 70.1335 145.935 70.4255 145.935 70.7598V75H144.831ZM153.346 75V65.4404H154.45V75H153.346ZM159.304 75.1206C158.657 75.1206 158.096 74.9788 157.622 74.6953C157.152 74.4076 156.788 73.9992 156.53 73.4702C156.276 72.9412 156.149 72.3128 156.149 71.585V71.5723C156.149 70.8402 156.276 70.2096 156.53 69.6807C156.788 69.1517 157.152 68.7454 157.622 68.4619C158.096 68.1784 158.657 68.0366 159.304 68.0366C159.956 68.0366 160.517 68.1784 160.986 68.4619C161.456 68.7454 161.818 69.1517 162.072 69.6807C162.33 70.2096 162.459 70.8402 162.459 71.5723V71.585C162.459 72.3128 162.33 72.9412 162.072 73.4702C161.818 73.9992 161.456 74.4076 160.986 74.6953C160.517 74.9788 159.956 75.1206 159.304 75.1206ZM159.304 74.1431C159.736 74.1431 160.102 74.0415 160.402 73.8384C160.703 73.6353 160.931 73.3433 161.088 72.9624C161.249 72.5815 161.329 72.1224 161.329 71.585V71.5723C161.329 71.0306 161.249 70.5693 161.088 70.1885C160.931 69.8076 160.703 69.5177 160.402 69.3188C160.102 69.1157 159.736 69.0142 159.304 69.0142C158.873 69.0142 158.507 69.1157 158.206 69.3188C157.906 69.5177 157.675 69.8076 157.514 70.1885C157.358 70.5693 157.279 71.0306 157.279 71.5723V71.585C157.279 72.1224 157.358 72.5815 157.514 72.9624C157.675 73.3433 157.906 73.6353 158.206 73.8384C158.507 74.0415 158.873 74.1431 159.304 74.1431ZM166.894 75.1206C166.255 75.1206 165.701 74.9746 165.231 74.6826C164.761 74.3906 164.397 73.978 164.139 73.4448C163.881 72.9116 163.752 72.2832 163.752 71.5596V71.5469C163.752 70.8359 163.879 70.2181 164.133 69.6934C164.391 69.1686 164.755 68.7624 165.225 68.4746C165.694 68.1826 166.249 68.0366 166.888 68.0366C167.442 68.0366 167.92 68.134 168.322 68.3286C168.724 68.5233 169.046 68.7856 169.287 69.1157C169.528 69.4416 169.683 69.8076 169.751 70.2139L169.757 70.252H168.659L168.652 70.2329C168.568 69.8944 168.375 69.6066 168.075 69.3696C167.774 69.1326 167.379 69.0142 166.888 69.0142C166.477 69.0142 166.122 69.1178 165.821 69.3252C165.521 69.5326 165.288 69.8267 165.123 70.2075C164.962 70.5841 164.882 71.0306 164.882 71.5469V71.5596C164.882 72.0843 164.964 72.5413 165.13 72.9307C165.295 73.3158 165.527 73.6141 165.828 73.8257C166.128 74.0373 166.482 74.1431 166.888 74.1431C167.349 74.1431 167.726 74.0436 168.018 73.8447C168.31 73.6458 168.519 73.356 168.646 72.9751L168.659 72.937L169.751 72.9307L169.738 73.0005C169.645 73.411 169.48 73.777 169.243 74.0986C169.006 74.416 168.693 74.6657 168.303 74.8477C167.914 75.0296 167.444 75.1206 166.894 75.1206ZM173.17 75.1206C172.739 75.1206 172.349 75.0381 172.002 74.873C171.659 74.708 171.386 74.4731 171.183 74.1685C170.984 73.8638 170.885 73.5041 170.885 73.0894V73.0767C170.885 72.6704 170.982 72.3234 171.177 72.0356C171.372 71.7437 171.655 71.5151 172.028 71.3501C172.4 71.1851 172.851 71.0877 173.38 71.0581L175.893 70.9058V71.7881L173.513 71.9404C172.992 71.9701 172.612 72.078 172.37 72.2642C172.133 72.4504 172.015 72.7127 172.015 73.0513V73.064C172.015 73.411 172.146 73.6818 172.408 73.8765C172.671 74.0669 173.001 74.1621 173.399 74.1621C173.775 74.1621 174.11 74.0881 174.402 73.9399C174.694 73.7876 174.922 73.5824 175.087 73.3242C175.256 73.0661 175.341 72.7741 175.341 72.4482V70.3154C175.341 69.8923 175.212 69.5706 174.954 69.3506C174.7 69.1263 174.317 69.0142 173.805 69.0142C173.394 69.0142 173.058 69.0882 172.796 69.2363C172.533 69.3802 172.358 69.5854 172.269 69.8521L172.262 69.8711H171.158L171.164 69.833C171.224 69.4733 171.372 69.1602 171.609 68.8936C171.85 68.6227 172.161 68.4132 172.542 68.2651C172.923 68.1128 173.356 68.0366 173.843 68.0366C174.402 68.0366 174.873 68.1276 175.259 68.3096C175.648 68.4915 175.942 68.7539 176.141 69.0967C176.344 69.4352 176.446 69.8415 176.446 70.3154V75H175.341V73.9907H175.24C175.096 74.2319 174.92 74.4372 174.713 74.6064C174.51 74.7757 174.279 74.9048 174.021 74.9937C173.763 75.0783 173.479 75.1206 173.17 75.1206ZM180.817 75.0508C180.115 75.0508 179.605 74.909 179.287 74.6255C178.974 74.342 178.818 73.8743 178.818 73.2227V69.0713H177.739V68.1572H178.818V66.3862H179.96V68.1572H181.458V69.0713H179.96V72.9434C179.96 73.3454 180.037 73.6353 180.189 73.813C180.341 73.9865 180.595 74.0732 180.951 74.0732C181.048 74.0732 181.13 74.0711 181.198 74.0669C181.27 74.0627 181.357 74.0563 181.458 74.0479V74.9873C181.353 75.0042 181.247 75.019 181.141 75.0317C181.035 75.0444 180.927 75.0508 180.817 75.0508ZM183.056 75V68.1572H184.161V75H183.056ZM183.615 66.8369C183.407 66.8369 183.228 66.7629 183.075 66.6147C182.927 66.4624 182.853 66.2826 182.853 66.0752C182.853 65.8636 182.927 65.6838 183.075 65.5356C183.228 65.3875 183.407 65.3135 183.615 65.3135C183.826 65.3135 184.006 65.3875 184.154 65.5356C184.302 65.6838 184.376 65.8636 184.376 66.0752C184.376 66.2826 184.302 66.4624 184.154 66.6147C184.006 66.7629 183.826 66.8369 183.615 66.8369ZM188.977 75.1206C188.329 75.1206 187.769 74.9788 187.295 74.6953C186.825 74.4076 186.461 73.9992 186.203 73.4702C185.949 72.9412 185.822 72.3128 185.822 71.585V71.5723C185.822 70.8402 185.949 70.2096 186.203 69.6807C186.461 69.1517 186.825 68.7454 187.295 68.4619C187.769 68.1784 188.329 68.0366 188.977 68.0366C189.628 68.0366 190.189 68.1784 190.659 68.4619C191.129 68.7454 191.49 69.1517 191.744 69.6807C192.002 70.2096 192.132 70.8402 192.132 71.5723V71.585C192.132 72.3128 192.002 72.9412 191.744 73.4702C191.49 73.9992 191.129 74.4076 190.659 74.6953C190.189 74.9788 189.628 75.1206 188.977 75.1206ZM188.977 74.1431C189.408 74.1431 189.774 74.0415 190.075 73.8384C190.375 73.6353 190.604 73.3433 190.76 72.9624C190.921 72.5815 191.002 72.1224 191.002 71.585V71.5723C191.002 71.0306 190.921 70.5693 190.76 70.1885C190.604 69.8076 190.375 69.5177 190.075 69.3188C189.774 69.1157 189.408 69.0142 188.977 69.0142C188.545 69.0142 188.179 69.1157 187.879 69.3188C187.578 69.5177 187.347 69.8076 187.187 70.1885C187.03 70.5693 186.952 71.0306 186.952 71.5723V71.585C186.952 72.1224 187.03 72.5815 187.187 72.9624C187.347 73.3433 187.578 73.6353 187.879 73.8384C188.179 74.0415 188.545 74.1431 188.977 74.1431ZM193.767 75V68.1572H194.872V69.1855H194.973C195.147 68.8216 195.397 68.5402 195.722 68.3413C196.048 68.1382 196.463 68.0366 196.967 68.0366C197.737 68.0366 198.327 68.2567 198.738 68.6968C199.152 69.1326 199.36 69.7568 199.36 70.5693V75H198.255V70.8359C198.255 70.2181 198.124 69.7611 197.862 69.4648C197.603 69.1644 197.201 69.0142 196.656 69.0142C196.292 69.0142 195.976 69.0924 195.71 69.249C195.443 69.4056 195.236 69.6278 195.088 69.9155C194.944 70.2033 194.872 70.5482 194.872 70.9502V75H193.767ZM206.18 75L204.263 68.1572H205.367L206.713 73.6289H206.814L208.344 68.1572H209.392L210.921 73.6289H211.023L212.369 68.1572H213.467L211.55 75H210.439L208.909 69.7061H208.808L207.284 75H206.18ZM216.537 75.1206C216.106 75.1206 215.716 75.0381 215.369 74.873C215.027 74.708 214.754 74.4731 214.55 74.1685C214.352 73.8638 214.252 73.5041 214.252 73.0894V73.0767C214.252 72.6704 214.349 72.3234 214.544 72.0356C214.739 71.7437 215.022 71.5151 215.395 71.3501C215.767 71.1851 216.218 71.0877 216.747 71.0581L219.26 70.9058V71.7881L216.88 71.9404C216.36 71.9701 215.979 72.078 215.737 72.2642C215.5 72.4504 215.382 72.7127 215.382 73.0513V73.064C215.382 73.411 215.513 73.6818 215.776 73.8765C216.038 74.0669 216.368 74.1621 216.766 74.1621C217.142 74.1621 217.477 74.0881 217.769 73.9399C218.061 73.7876 218.289 73.5824 218.454 73.3242C218.624 73.0661 218.708 72.7741 218.708 72.4482V70.3154C218.708 69.8923 218.579 69.5706 218.321 69.3506C218.067 69.1263 217.684 69.0142 217.172 69.0142C216.762 69.0142 216.425 69.0882 216.163 69.2363C215.9 69.3802 215.725 69.5854 215.636 69.8521L215.63 69.8711H214.525L214.531 69.833C214.591 69.4733 214.739 69.1602 214.976 68.8936C215.217 68.6227 215.528 68.4132 215.909 68.2651C216.29 68.1128 216.723 68.0366 217.21 68.0366C217.769 68.0366 218.241 68.1276 218.626 68.3096C219.015 68.4915 219.309 68.7539 219.508 69.0967C219.711 69.4352 219.813 69.8415 219.813 70.3154V75H218.708V73.9907H218.607C218.463 74.2319 218.287 74.4372 218.08 74.6064C217.877 74.7757 217.646 74.9048 217.388 74.9937C217.13 75.0783 216.846 75.1206 216.537 75.1206ZM224.102 75.1206C223.594 75.1206 223.145 75.0444 222.756 74.8921C222.367 74.7355 222.054 74.5176 221.817 74.2383C221.584 73.959 221.446 73.631 221.404 73.2544H222.534C222.627 73.5379 222.809 73.7664 223.08 73.9399C223.351 74.1134 223.704 74.2002 224.14 74.2002C224.449 74.2002 224.72 74.1558 224.952 74.0669C225.189 73.9738 225.376 73.849 225.511 73.6924C225.646 73.5316 225.714 73.3475 225.714 73.1401V73.1274C225.714 72.8947 225.621 72.6979 225.435 72.5371C225.249 72.3721 224.944 72.2388 224.521 72.1372L223.461 71.8833C223.033 71.7817 222.682 71.6506 222.407 71.4897C222.132 71.3247 221.929 71.1237 221.798 70.8867C221.666 70.6455 221.601 70.362 221.601 70.0361V70.0298C221.601 69.6489 221.711 69.3083 221.931 69.0078C222.155 68.7074 222.46 68.4704 222.845 68.2969C223.23 68.1234 223.664 68.0366 224.146 68.0366C224.624 68.0366 225.048 68.1128 225.416 68.2651C225.788 68.4132 226.087 68.6248 226.311 68.8999C226.539 69.175 226.679 69.4987 226.73 69.8711H225.644C225.572 69.6003 225.407 69.3802 225.149 69.2109C224.891 69.0417 224.555 68.957 224.14 68.957C223.869 68.957 223.628 69.0015 223.416 69.0903C223.205 69.175 223.038 69.2935 222.915 69.4458C222.792 69.5981 222.731 69.7759 222.731 69.979V69.9917C222.731 70.144 222.771 70.2795 222.851 70.3979C222.932 70.5164 223.057 70.6201 223.226 70.709C223.395 70.7979 223.613 70.8761 223.88 70.9438L224.933 71.1978C225.577 71.3543 226.055 71.5786 226.368 71.8706C226.685 72.1626 226.844 72.554 226.844 73.0449V73.0576C226.844 73.4639 226.723 73.8236 226.482 74.1367C226.241 74.4456 225.913 74.6868 225.498 74.8604C225.088 75.0339 224.622 75.1206 224.102 75.1206Z" fill="black"/>
<g clip-path="url(#clip1_19_5733)">
<mask id="path-4-inside-1_19_5733" fill="white">
<path d="M0 96H134.835V140H0V96Z"/>
</mask>
<path d="M0 96.33H134.835V95.67H0V96.33Z" fill="#C8C7CB" mask="url(#path-4-inside-1_19_5733)"/>
<path d="M47.4246 124.282C46.34 124.282 45.402 124.028 44.6106 123.519C43.8193 123.009 43.2078 122.287 42.7762 121.352C42.3501 120.417 42.137 119.307 42.137 118.023V118.007C42.137 116.717 42.3501 115.605 42.7762 114.67C43.2078 113.735 43.8165 113.013 44.6023 112.503C45.3937 111.994 46.3317 111.74 47.4163 111.74C48.2575 111.74 49.0211 111.906 49.7073 112.238C50.3991 112.564 50.969 113.021 51.4173 113.607C51.8655 114.188 52.1478 114.861 52.264 115.625L52.2557 115.641H50.7532L50.7449 115.625C50.6121 115.11 50.388 114.667 50.0726 114.296C49.7571 113.92 49.3725 113.63 48.9188 113.425C48.4705 113.22 47.9697 113.118 47.4163 113.118C46.6526 113.118 45.9886 113.317 45.4241 113.715C44.8652 114.114 44.4336 114.678 44.1292 115.409C43.8248 116.139 43.6727 117.005 43.6727 118.007V118.023C43.6727 119.02 43.8248 119.883 44.1292 120.613C44.4336 121.344 44.8652 121.908 45.4241 122.307C45.9886 122.705 46.6554 122.904 47.4246 122.904C47.9835 122.904 48.4899 122.816 48.9437 122.639C49.3974 122.456 49.7793 122.199 50.0892 121.867C50.3991 121.529 50.6149 121.131 50.7366 120.671L50.7532 120.655H52.264V120.671C52.1312 121.402 51.8434 122.038 51.4007 122.581C50.958 123.117 50.3963 123.535 49.7156 123.834C49.0405 124.133 48.2768 124.282 47.4246 124.282ZM56.6152 124.158C56.0508 124.158 55.5416 124.05 55.0879 123.834C54.6396 123.618 54.2827 123.311 54.0171 122.913C53.757 122.514 53.6269 122.044 53.6269 121.501V121.485C53.6269 120.954 53.7542 120.5 54.0088 120.124C54.2633 119.742 54.6341 119.443 55.1211 119.227C55.6081 119.011 56.1974 118.884 56.8891 118.845L60.1763 118.646V119.8L57.0635 119.999C56.3828 120.038 55.8847 120.179 55.5693 120.422C55.2594 120.666 55.1045 121.009 55.1045 121.452V121.468C55.1045 121.922 55.276 122.276 55.6191 122.531C55.9622 122.78 56.3939 122.904 56.914 122.904C57.4066 122.904 57.8437 122.807 58.2256 122.614C58.6074 122.415 58.9062 122.146 59.1221 121.809C59.3434 121.471 59.4541 121.089 59.4541 120.663V117.874C59.4541 117.321 59.2853 116.9 58.9477 116.612C58.6157 116.319 58.1149 116.172 57.4453 116.172C56.9085 116.172 56.4686 116.269 56.1255 116.463C55.7824 116.651 55.5527 116.919 55.4365 117.268L55.4282 117.293H53.9839L53.9922 117.243C54.0696 116.773 54.2633 116.363 54.5732 116.015C54.8887 115.66 55.2954 115.387 55.7934 115.193C56.2915 114.994 56.8587 114.894 57.4951 114.894C58.2256 114.894 58.8426 115.013 59.3462 115.251C59.8553 115.489 60.2399 115.832 60.5 116.28C60.7656 116.723 60.8984 117.254 60.8984 117.874V124H59.4541V122.68H59.3213C59.1331 122.996 58.9035 123.264 58.6323 123.485C58.3667 123.707 58.0651 123.875 57.7275 123.992C57.39 124.102 57.0192 124.158 56.6152 124.158ZM63.1081 124V115.052H64.5524V116.396H64.6852C64.9121 115.921 65.2386 115.553 65.6647 115.292C66.0908 115.027 66.6331 114.894 67.2917 114.894C68.2988 114.894 69.0708 115.182 69.6076 115.757C70.1499 116.327 70.4211 117.144 70.4211 118.206V124H68.9767V118.555C68.9767 117.747 68.8052 117.149 68.4621 116.762C68.1245 116.369 67.5988 116.172 66.8849 116.172C66.409 116.172 65.9967 116.275 65.6481 116.479C65.2995 116.684 65.0283 116.975 64.8346 117.351C64.6465 117.727 64.5524 118.178 64.5524 118.704V124H63.1081ZM76.2664 124.158C75.4308 124.158 74.7059 123.967 74.0916 123.585C73.4774 123.203 73.0015 122.664 72.6639 121.966C72.3263 121.269 72.1576 120.447 72.1576 119.501V119.484C72.1576 118.555 72.3236 117.747 72.6556 117.061C72.9932 116.374 73.4691 115.843 74.0833 115.467C74.6976 115.085 75.4225 114.894 76.2581 114.894C76.9831 114.894 77.6084 115.021 78.1341 115.276C78.6598 115.53 79.0804 115.874 79.3958 116.305C79.7113 116.731 79.9133 117.21 80.0018 117.741L80.0101 117.791H78.5741L78.5658 117.766C78.4551 117.323 78.2033 116.947 77.8104 116.637C77.4175 116.327 76.9001 116.172 76.2581 116.172C75.7214 116.172 75.2565 116.308 74.8636 116.579C74.4707 116.85 74.1663 117.235 73.9505 117.733C73.7402 118.225 73.6351 118.809 73.6351 119.484V119.501C73.6351 120.187 73.743 120.785 73.9588 121.294C74.1746 121.798 74.479 122.188 74.8719 122.464C75.2648 122.741 75.7269 122.879 76.2581 122.879C76.8613 122.879 77.3538 122.749 77.7357 122.489C78.1175 122.229 78.3914 121.85 78.5575 121.352L78.5741 121.302L80.0018 121.294L79.9852 121.385C79.8635 121.922 79.6476 122.401 79.3377 122.821C79.0278 123.236 78.6183 123.563 78.1092 123.801C77.6001 124.039 76.9858 124.158 76.2664 124.158ZM85.3408 124.158C84.4886 124.158 83.7554 123.97 83.1411 123.593C82.5324 123.217 82.062 122.686 81.73 122C81.4035 121.308 81.2403 120.494 81.2403 119.559V119.551C81.2403 118.627 81.4035 117.816 81.73 117.119C82.062 116.421 82.5296 115.876 83.1328 115.483C83.736 115.09 84.4416 114.894 85.2495 114.894C86.063 114.894 86.7603 115.082 87.3413 115.458C87.9279 115.835 88.3762 116.361 88.6861 117.036C89.0015 117.705 89.1592 118.486 89.1592 119.376V119.941H81.9873V118.787H88.4204L87.7066 119.841V119.269C87.7066 118.566 87.6014 117.987 87.3911 117.534C87.1808 117.08 86.8903 116.742 86.5196 116.521C86.1488 116.294 85.7227 116.181 85.2412 116.181C84.7598 116.181 84.3281 116.3 83.9463 116.538C83.57 116.77 83.2712 117.116 83.0498 117.575C82.8285 118.035 82.7178 118.599 82.7178 119.269V119.841C82.7178 120.478 82.8257 121.023 83.0415 121.477C83.2573 121.925 83.5645 122.271 83.9629 122.514C84.3613 122.752 84.8317 122.871 85.374 122.871C85.778 122.871 86.1294 122.816 86.4282 122.705C86.7271 122.594 86.9733 122.453 87.167 122.282C87.3607 122.11 87.4963 121.936 87.5737 121.759L87.607 121.684H89.0513L89.0347 121.75C88.9572 122.055 88.8189 122.351 88.6196 122.639C88.426 122.921 88.1742 123.178 87.8643 123.411C87.5544 123.638 87.1864 123.82 86.7603 123.958C86.3397 124.091 85.8666 124.158 85.3408 124.158ZM91.0534 124V111.499H92.4978V124H91.0534Z" fill="#007AFF"/>
<rect x="134.835" y="96" width="0.33" height="44" fill="#C8C7CB"/>
<mask id="path-8-inside-2_19_5733" fill="white">
<path d="M135.165 96H270V140H135.165V96Z"/>
</mask>
<path d="M135.165 96.33H270V95.67H135.165V96.33Z" fill="#C8C7CB" mask="url(#path-8-inside-2_19_5733)"/>
<path d="M197.003 124.299C195.83 124.299 194.82 124.044 193.973 123.535C193.132 123.021 192.482 122.293 192.023 121.352C191.563 120.411 191.334 119.299 191.334 118.015V117.999C191.334 116.709 191.563 115.597 192.023 114.662C192.487 113.721 193.143 112.996 193.99 112.487C194.842 111.978 195.847 111.723 197.003 111.723C198.165 111.723 199.17 111.978 200.016 112.487C200.863 112.996 201.516 113.721 201.975 114.662C202.435 115.602 202.664 116.715 202.664 117.999V118.015C202.664 119.299 202.435 120.411 201.975 121.352C201.521 122.293 200.871 123.021 200.025 123.535C199.178 124.044 198.171 124.299 197.003 124.299ZM197.003 122.448C197.717 122.448 198.334 122.265 198.854 121.9C199.374 121.535 199.776 121.02 200.058 120.356C200.346 119.692 200.489 118.912 200.489 118.015V117.999C200.489 117.097 200.346 116.316 200.058 115.658C199.776 114.994 199.374 114.482 198.854 114.122C198.334 113.757 197.717 113.574 197.003 113.574C196.295 113.574 195.678 113.757 195.152 114.122C194.632 114.482 194.228 114.994 193.94 115.658C193.658 116.316 193.517 117.097 193.517 117.999V118.015C193.517 118.912 193.655 119.692 193.932 120.356C194.214 121.02 194.615 121.535 195.135 121.9C195.661 122.265 196.284 122.448 197.003 122.448ZM206.667 120.339L206.584 117.559H206.974L211.697 112.022H214.146L209.464 117.426L208.269 118.48L206.667 120.339ZM204.691 124V112.022H206.833V124H204.691ZM211.896 124L207.97 118.463L209.481 117.036L214.511 124H211.896Z" fill="#007AFF"/>
</g>
</g>
</g>
<defs>
<filter id="filter0_b_19_5733" x="-20" y="-20" width="310" height="180" filterUnits="userSpaceOnUse" color-interpolation-filters="sRGB">
<feFlood flood-opacity="0" result="BackgroundImageFix"/>
<feGaussianBlur in="BackgroundImageFix" stdDeviation="10"/>
<feComposite in2="SourceAlpha" operator="in" result="effect1_backgroundBlur_19_5733"/>
<feBlend mode="normal" in="SourceGraphic" in2="effect1_backgroundBlur_19_5733" result="shape"/>
</filter>
<clipPath id="clip0_19_5733">
<rect width="270" height="140" rx="14" fill="white"/>
</clipPath>
<clipPath id="clip1_19_5733">
<rect width="270" height="44" fill="white" transform="translate(0 96)"/>
</clipPath>
</defs>
</svg>
