<svg width="32" height="33" viewBox="0 0 32 33" fill="none" xmlns="http://www.w3.org/2000/svg">
<path d="M13.6573 22.5621L8 16.9034L9.88533 15.0181L13.6573 18.7888L21.1987 11.2461L23.0853 13.1328L13.6573 22.5621Z" fill="white"/>
<path fill-rule="evenodd" clip-rule="evenodd" d="M1.33325 16.8101C1.33325 8.7101 7.89992 2.14343 15.9999 2.14343C24.0999 2.14343 30.6666 8.7101 30.6666 16.8101C30.6666 24.9101 24.0999 31.4768 15.9999 31.4768C7.89992 31.4768 1.33325 24.9101 1.33325 16.8101ZM15.9999 28.8101C14.4241 28.8101 12.8636 28.4997 11.4077 27.8967C9.95181 27.2936 8.62894 26.4097 7.51464 25.2954C6.40033 24.1811 5.51642 22.8582 4.91336 21.4023C4.31031 19.9464 3.99992 18.386 3.99992 16.8101C3.99992 15.2342 4.31031 13.6738 4.91336 12.2179C5.51642 10.762 6.40033 9.43912 7.51464 8.32482C8.62894 7.21051 9.95181 6.3266 11.4077 5.72354C12.8636 5.12049 14.4241 4.8101 15.9999 4.8101C19.1825 4.8101 22.2348 6.07438 24.4852 8.32482C26.7356 10.5753 27.9999 13.6275 27.9999 16.8101C27.9999 19.9927 26.7356 23.0449 24.4852 25.2954C22.2348 27.5458 19.1825 28.8101 15.9999 28.8101Z" fill="white"/>
</svg>
