<svg width="22" height="23" viewBox="0 0 22 23" fill="none" xmlns="http://www.w3.org/2000/svg">
<path d="M15.0103 3.47902C16.073 3.4822 17.0913 3.90577 17.8428 4.65724C18.5942 5.4087 19.0178 6.427 19.021 7.48973V15.5103C19.0178 16.573 18.5942 17.5913 17.8428 18.3428C17.0913 19.0942 16.073 19.5178 15.0103 19.521H6.98973C5.927 19.5178 4.9087 19.0942 4.15724 18.3428C3.40577 17.5913 2.9822 16.573 2.97902 15.5103V7.48973C2.9822 6.427 3.40577 5.4087 4.15724 4.65724C4.9087 3.90577 5.927 3.4822 6.98973 3.47902H15.0103ZM15.0103 1.875H6.98973C3.90156 1.875 1.375 4.40156 1.375 7.48973V15.5103C1.375 18.5984 3.90156 21.125 6.98973 21.125H15.0103C18.0984 21.125 20.625 18.5984 20.625 15.5103V7.48973C20.625 4.40156 18.0984 1.875 15.0103 1.875Z" fill="#7A7B85"/>
<path d="M16.2134 7.48972C15.9754 7.48972 15.7428 7.41915 15.545 7.28695C15.3471 7.15475 15.1929 6.96685 15.1019 6.74701C15.0108 6.52716 14.987 6.28526 15.0334 6.05187C15.0798 5.81849 15.1944 5.60411 15.3627 5.43585C15.5309 5.26759 15.7453 5.15301 15.9787 5.10658C16.2121 5.06016 16.454 5.08399 16.6738 5.17505C16.8937 5.26611 17.0816 5.42032 17.2138 5.61817C17.346 5.81602 17.4165 6.04864 17.4165 6.28659C17.4169 6.44468 17.386 6.60129 17.3256 6.74741C17.2653 6.89353 17.1767 7.0263 17.0649 7.13809C16.9531 7.24988 16.8203 7.33848 16.6742 7.39883C16.5281 7.45917 16.3715 7.49006 16.2134 7.48972ZM11 8.29151C11.6346 8.29151 12.2549 8.47969 12.7825 8.83224C13.3102 9.18479 13.7214 9.68589 13.9642 10.2722C14.2071 10.8584 14.2706 11.5035 14.1468 12.1259C14.023 12.7483 13.7175 13.32 13.2687 13.7687C12.82 14.2174 12.2483 14.523 11.6259 14.6468C11.0036 14.7706 10.3584 14.7071 9.77217 14.4642C9.1859 14.2214 8.6848 13.8102 8.33225 13.2825C7.9797 12.7549 7.79153 12.1346 7.79153 11.5C7.79244 10.6493 8.13076 9.83377 8.73227 9.23226C9.33378 8.63075 10.1493 8.29242 11 8.29151ZM11 6.68749C10.0482 6.68749 9.11773 6.96974 8.32632 7.49854C7.53491 8.02735 6.91808 8.77896 6.55383 9.65832C6.18959 10.5377 6.09428 11.5053 6.27997 12.4389C6.46566 13.3724 6.92401 14.2299 7.59705 14.9029C8.27009 15.576 9.1276 16.0343 10.0611 16.22C10.9947 16.4057 11.9623 16.3104 12.8417 15.9462C13.721 15.5819 14.4726 14.9651 15.0015 14.1737C15.5303 13.3823 15.8125 12.4518 15.8125 11.5C15.8125 10.2236 15.3055 8.99956 14.403 8.09704C13.5004 7.19452 12.2764 6.68749 11 6.68749Z" fill="#7A7B85"/>
</svg>
