<svg width="41" height="32" viewBox="0 0 41 32" fill="none" xmlns="http://www.w3.org/2000/svg">
<g clip-path="url(#clip0_19_5554)">
<path d="M34.728 2.66886C32.0397 1.4057 29.1957 0.508169 26.2711 0C25.9068 0.661387 25.4812 1.55095 25.1877 2.25865C22.0344 1.78246 18.9102 1.78246 15.815 2.25865C15.5216 1.55112 15.0864 0.661387 14.7187 0C11.7913 0.50839 8.94479 1.40821 6.25521 2.67546C0.903123 10.7975 -0.547789 18.7176 0.177587 26.5256C3.72744 29.1877 7.16761 30.8049 10.5498 31.8632C11.3904 30.7024 12.1335 29.4734 12.7713 28.1889C11.5569 27.7247 10.3862 27.1525 9.27312 26.4793C9.56602 26.2612 9.85204 26.034 10.1308 25.7979C16.8756 28.9661 24.2043 28.9661 30.8688 25.7979C31.1487 26.0324 31.4347 26.2596 31.7263 26.4793C30.6115 27.1543 29.4386 27.7276 28.2218 28.1923C28.8632 29.482 29.6049 30.7121 30.4432 31.8664C33.8286 30.8083 37.272 29.1911 40.8218 26.5256C41.6731 17.4743 39.3679 9.62685 34.728 2.66886ZM13.6902 21.7238C11.6654 21.7238 10.0049 19.8255 10.0049 17.514C10.0049 15.2024 11.63 13.3009 13.6902 13.3009C15.7504 13.3009 17.4109 15.199 17.3756 17.514C17.3788 19.8255 15.7506 21.7238 13.6902 21.7238ZM27.3092 21.7238C25.2844 21.7238 23.624 19.8255 23.624 17.514C23.624 15.2024 25.249 13.3009 27.3092 13.3009C29.3695 13.3009 31.0299 15.199 30.9945 17.514C30.9945 19.8255 29.3695 21.7238 27.3092 21.7238Z" fill="#5865F2"/>
</g>
<defs>
<clipPath id="clip0_19_5554">
<rect width="41" height="32" fill="white"/>
</clipPath>
</defs>
</svg>
