<svg width="33" height="27" viewBox="0 0 33 27" fill="none" xmlns="http://www.w3.org/2000/svg">
<g clip-path="url(#clip0_19_5539)">
<path d="M10.2011 26.38C22.4483 26.38 29.1498 16.2279 29.1498 7.4389C29.1498 7.15327 29.1498 6.86764 29.1369 6.58201C30.4355 5.64729 31.5655 4.46591 32.4616 3.12873C31.2668 3.661 29.981 4.01153 28.6303 4.18029C30.007 3.36241 31.059 2.0512 31.5655 0.493326C30.2797 1.25928 28.851 1.80454 27.3315 2.10313C26.1107 0.8049 24.3834 0 22.4742 0C18.7987 0 15.8117 2.98593 15.8117 6.65989C15.8117 7.17919 15.8766 7.68555 15.9805 8.17885C10.4478 7.90622 5.53853 5.24484 2.2527 1.22033C1.68125 2.20699 1.35656 3.34943 1.35656 4.56976C1.35656 6.88063 2.53843 8.91888 4.31771 10.1132C3.22676 10.0743 2.20075 9.77564 1.30461 9.28233C1.30461 9.30831 1.30461 9.3343 1.30461 9.37321C1.30461 12.5928 3.6034 15.2931 6.6425 15.9033C6.08401 16.0591 5.49957 16.137 4.88916 16.137C4.46057 16.137 4.04497 16.098 3.64236 16.0201C4.48654 18.6685 6.95417 20.5899 9.86334 20.6418C7.57752 22.4334 4.70734 23.4979 1.59034 23.4979C1.05785 23.4979 0.525359 23.472 0.00585938 23.407C2.94104 25.2765 6.44766 26.38 10.2011 26.38Z" fill="#55ACEE"/>
</g>
<defs>
<clipPath id="clip0_19_5539">
<rect width="33" height="26.38" fill="white"/>
</clipPath>
</defs>
</svg>
